<svg id="Capa_1"
 enable-background="new 0 0 512 512" 
 height="512"
  viewBox="0 0 512 512"
   width="512"
    xmlns="http://www.w3.org/2000/svg">
    <path d="m437.02 74.98c-48.353-48.351-112.64-74.98-181.02-74.98s-132.667 26.629-181.02 74.98c-48.351 48.353-74.98 112.64-74.98 181.02s26.629 132.667 74.98 181.02c48.353 48.351 112.64 74.98 181.02 74.98s132.667-26.629 181.02-74.98c48.351-48.353 74.98-112.64 74.98-181.02s-26.629-132.667-74.98-181.02zm-21.214 340.826c-42.686 42.686-99.439 66.194-159.806 66.194s-117.12-23.508-159.806-66.194-66.194-99.439-66.194-159.806 23.508-117.12 66.194-159.806 99.439-66.194 159.806-66.194 117.12 23.508 159.806 66.194 66.194 99.439 66.194 159.806-23.508 117.12-66.194 159.806z"/>
    <path d="m256 180c-41.907 0-76 34.094-76 76s34.093 76 76 76c41.906 0 76-34.094 76-76s-34.094-76-76-76zm0 122c-25.364 0-46-20.636-46-46s20.636-46 46-46 46 20.636 46 46-20.636 46-46 46z"/>
    <path d="m452.036 241h-30.721c-7.163-79.586-70.729-143.152-150.315-150.315v-30.721h-30v30.721c-79.587 7.163-143.152 70.729-150.315 150.315h-30.721v30h30.721c7.163 79.586 70.728 143.152 150.315 150.315v30.721h30v-30.721c79.586-7.163 143.152-70.729 150.315-150.315h30.721zm-181.036 150.169v-29.205h-30v29.205c-63.031-6.948-113.221-57.139-120.169-120.169h29.205v-30h-29.205c6.948-63.03 57.138-113.221 120.169-120.169v29.205h30v-29.205c63.03 6.948 113.221 57.139 120.169 120.169h-29.205v30h29.205c-6.948 63.03-57.139 113.221-120.169 120.169z"/>
</svg>